<?xml version="1.0" encoding="UTF-8"?>
<svg id="Layer_2" data-name="Layer 2" xmlns="http://www.w3.org/2000/svg" xmlns:xlink="http://www.w3.org/1999/xlink" viewBox="0 0 110.24 65.87">
  <defs>
    <style>
      .cls-1 {
        fill: url(#radial-gradient);
      }

      .cls-2 {
        fill: #981b49;
      }
    </style>
    <radialGradient id="radial-gradient" cx="17.59" cy="86.13" fx="17.59" fy="86.13" r="169.61" gradientTransform="translate(-4.48 -18.76) scale(.86)" gradientUnits="userSpaceOnUse">
      <stop offset="0" stop-color="#e07541"/>
      <stop offset=".1" stop-color="#de6e3e"/>
      <stop offset=".25" stop-color="#da5b39"/>
      <stop offset=".26" stop-color="#da5a39"/>
      <stop offset=".26" stop-color="#d95939"/>
      <stop offset=".37" stop-color="#d23b41"/>
      <stop offset=".47" stop-color="#ce2847"/>
      <stop offset=".53" stop-color="#cd2249"/>
      <stop offset=".74" stop-color="#a42e60"/>
    </radialGradient>
  </defs>
  <g id="Layer_1-2" data-name="Layer 1">
    <g>
      <path class="cls-2" d="M98.91.28c4.03-1.01,7.69,2.65,6.66,6.69l-14.41,56.25c-.02.08-.06.15-.08.22h.01s18.59-51.22,18.59-51.22c2.49-6.87-3.71-13.71-10.77-11.94Z"/>
      <path class="cls-1" d="M98.86.29L20.95,20.54c-1.8.47-4.2,2.07-5.33,3.55L.58,43.95c-1.13,1.49-.56,3.02,1.27,3.42l17,3.68c-.67-.44-1.29-.94-1.84-1.52-1.03-1.08-1.79-2.38-2.3-3.9-.51-1.51-.68-3.18-.52-5,.16-1.86.63-3.55,1.42-5.06.78-1.51,1.79-2.8,3.03-3.86,1.24-1.06,2.65-1.88,4.24-2.45,1.59-.57,3.28-.86,5.06-.86,1.65,0,3.25.29,4.79.87,1.54.58,2.76,1.43,3.66,2.55l-4.16,3.81c-.46-.72-1.11-1.26-1.94-1.61-.83-.35-1.69-.53-2.59-.53-.99,0-1.91.18-2.77.54-.86.36-1.61.86-2.26,1.5-.65.64-1.18,1.39-1.58,2.25-.41.87-.65,1.81-.74,2.84-.09,1.05-.01,2.02.24,2.89.25.88.64,1.63,1.17,2.25.53.62,1.18,1.11,1.97,1.46.78.35,1.66.53,2.63.53,1.12,0,2.12-.22,2.99-.66.87-.44,1.6-1.01,2.16-1.71l3.61,3.68c-1.14,1.18-2.5,2.12-4.08,2.81-1.16.51-2.43.83-3.81.96l28.64,6.19.82-3.75c.26.09.54.16.86.21.31.05.6.08.87.08.84,0,1.46-.19,1.87-.58.41-.38.77-.93,1.1-1.63l.65-1.35-5.46-16.11h6.01l2.74,10.52h.1l4.19-10.52h5.74l-9.01,18.84c-.4.85-.84,1.62-1.31,2.28-.47.67-1,1.24-1.6,1.71-.6.47-1.29.83-2.07,1.07-.28.09-.58.15-.89.21l26.56,5.74c1.82.39,3.69-.76,4.15-2.57l14.41-56.25c1.04-4.05-2.65-7.73-6.7-6.68ZM41.56,52.31h-5.41l1.43-16.37h5.41l-1.43,16.37ZM43.5,31.87c-.2.36-.44.67-.74.94-.3.26-.65.47-1.05.62-.4.15-.81.23-1.22.23-.88,0-1.59-.29-2.14-.87-.54-.58-.78-1.28-.71-2.09.03-.39.14-.77.33-1.13.19-.36.43-.67.74-.94.31-.26.66-.48,1.05-.64.39-.16.8-.25,1.24-.25.42,0,.81.08,1.18.23.37.15.68.36.94.62.25.26.44.58.58.94.13.36.18.75.15,1.17-.04.42-.15.81-.35,1.17ZM55.77,39.95h-3.86l-.55,6.27c-.07.77.03,1.35.29,1.73.26.39.78.58,1.55.58.26,0,.55-.02.85-.07.3-.04.55-.11.76-.2l-.28,3.95c-.39.13-.87.25-1.45.35-.58.1-1.16.15-1.73.15-1.1,0-2.01-.14-2.74-.41-.72-.27-1.29-.67-1.69-1.19-.41-.52-.68-1.13-.81-1.85-.14-.71-.16-1.51-.09-2.39l.61-6.92h-2.64l.35-4.01h2.61l.38-4.31h5.31l-.38,4.31h3.86l-.35,4.01ZM95.94,43.53c-.12,1.4-.47,2.68-1.05,3.83-.57,1.15-1.34,2.14-2.29,2.96-.95.82-2.07,1.46-3.35,1.92-1.28.46-2.68.69-4.2.69s-2.91-.23-4.1-.69c-1.19-.46-2.18-1.1-2.97-1.92-.79-.82-1.36-1.81-1.72-2.96-.36-1.15-.48-2.43-.36-3.83l1.27-14.5h5.61l-1.23,14.04c-.06.64-.03,1.24.09,1.81.12.57.32,1.08.63,1.53.3.45.72.81,1.26,1.07.54.26,1.2.39,1.99.39s1.48-.13,2.06-.39c.58-.26,1.07-.62,1.46-1.07.39-.45.69-.96.89-1.53.2-.57.33-1.17.39-1.81l1.23-14.04h5.64l-1.27,14.5Z"/>
    </g>
  </g>
</svg>